<svg width="34" height="32" viewBox="0 0 34 32" fill="none" xmlns="http://www.w3.org/2000/svg">
<g clip-path="url(#clip0)">
<path fill-rule="evenodd" clip-rule="evenodd" d="M17.3623 0.0142774C17.0605 0.0142774 16.7587 0.239818 16.6832 0.540557L13.1369 11.5175L1.55459 11.48C1.13959 11.48 0.800049 11.8183 0.800049 12.2318C0.800049 12.4574 0.913231 12.6829 1.10187 12.8333L10.4582 19.5999L6.87414 30.5768C6.76096 30.9904 6.94959 31.4039 7.36459 31.5167C7.59096 31.5918 7.85505 31.5543 8.04369 31.4039L17.4 24.5997L26.7564 31.4039C27.096 31.6671 27.5487 31.5919 27.8128 31.2535C27.9637 31.0656 28.0014 30.8024 27.926 30.5768L24.3419 19.5999L33.6982 12.8333C34.0378 12.6077 34.1132 12.119 33.8491 11.7807C33.6982 11.5927 33.4719 11.48 33.2455 11.48L21.6632 11.5175L18.1169 0.540557C18.0037 0.202225 17.7019 -0.023315 17.3623 0.0142774Z" fill="white"/>
</g>
<defs>
<clipPath id="clip0">
<rect width="33.2" height="31.54" fill="white" transform="translate(0.800049)"/>
</clipPath>
</defs>
</svg>
