<?xml version="1.0" encoding="utf-8"?>
<!-- Generator: Adobe Illustrator 24.0.0, SVG Export Plug-In . SVG Version: 6.00 Build 0)  -->
<svg version="1.1" id="Слой_1" xmlns="http://www.w3.org/2000/svg" xmlns:xlink="http://www.w3.org/1999/xlink" x="0px" y="0px"
	 viewBox="0 0 192.8 192.8" style="enable-background:new 0 0 192.8 192.8;" xml:space="preserve">
<style type="text/css">
	.st0{fill-rule:evenodd;clip-rule:evenodd;fill:#FFFFFF;}
</style>
<g>
	<path class="st0" d="M151.2,65.1c1.8-10.2-5-18.3-12.9-24.1c-11.1-8.2-23.6-13-36.6-16.8l0,0v135.1l0,0c5.7-5,11.5-10.6,16.9-16.3
		c11.7-12.9,22.6-26.1,27.1-41.9c1.8-7.2,0.9-15.4-5.2-20.2C145.7,76.6,150.4,71.5,151.2,65.1L151.2,65.1L151.2,65.1L151.2,65.1z
		 M128.9,111.8c-4,7.3-9.5,14-16,20.2l0,0l-0.1-38.6l0,0c4.4-3.2,8.9-6,14.4-6.5c2.2,0,4.1,0.7,5.6,2.4
		C137.6,97.1,131.9,105.1,128.9,111.8L128.9,111.8L128.9,111.8L128.9,111.8z M140,62.1c-1.1,6.1-7.8,9.6-12.6,12.2
		c-4.8,2.4-9.6,4.4-14.6,6.2l0,0V41l0,0c7.7,2.3,14.6,6.2,21.2,10.8C137,54.4,141.2,57.6,140,62.1L140,62.1L140,62.1L140,62.1z"/>
	<path class="st0" d="M91.7,158.3V23.7l-10.8,5.6v72.2l0,0c-0.5,2.1,1,5.2-1.3,6.2c-0.6,0.1-1.1-0.1-1.3-0.6
		c-4.6-17.4-6.6-35.8-7.4-54.7l0,0l-0.4-16.5L60,43.6V48l0,0c0.6,17.4,1.8,34.5,5.1,50.8l0,0l-4.1,4.6l0,0c-1.6-2.2-2.6-4.5-3.7-6.8
		c-5.2-13.9-7.2-29.1-7.9-44.9l0,0l-9,6.7l0,0c0.9,23.9,5.4,46.4,19.9,64.4c2.8-3.2,5.6-6.5,8.4-9.5c1.5,6.5,3.5,12.7,6,18.8
		C78.6,141.4,83.2,151,91.7,158.3L91.7,158.3z"/>
	<path class="st0" d="M174.7,41.4l-16.2-4l-2.9-11L139,22.5l-3.4-11.9l-39.2-9L58,10.5l-3.4,11.9l-16.6,4l0,0
		c-1.1,3.8-2.1,7.4-3,11.1l0,0l-16.2,3.9l0,0c-1.2,34.5,8.3,64.9,25.5,91.9c12.6,19.4,31.5,39.9,52.2,50c14-6.7,26.5-17.9,37.7-30.5
		C161.3,121.3,176.2,84.5,174.7,41.4L174.7,41.4L174.7,41.4L174.7,41.4z M126.9,145.7c-8.9,10-18.9,19.9-30.1,25.6
		c-10.7-5.4-20.1-14.6-28.6-24c-22.2-26-36.9-55-39.4-89c-0.2-2.8-0.4-5.5-0.2-8.4l0,0l13.8-3.2l3.2-11.3l16.9-4l0.1-0.4l3-11.7
		l30.7-7.2l31.7,7.2l3,11.9l17.2,4.1l2.9,11.3l13.9,3.2l0,0C164.7,87,150,118,126.9,145.7L126.9,145.7L126.9,145.7L126.9,145.7z"/>
	<path class="st0" d="M132,181.9c1.8-0.1,3-1.1,3-3.2c0-2.3-1.5-3.4-4.3-3.4l0,0h-4.4V187h1.9v-5h1.8l3,5h2.1L132,181.9L132,181.9
		L132,181.9z M128.4,180.5V177h2.3l0,0c1.1,0,2.4,0.2,2.4,1.7c0,1.6-1.2,1.8-2.7,1.8l0,0H128.4L128.4,180.5L128.4,180.5z"/>
	<path class="st0" d="M130.6,171.6c-5.5,0-10,4.5-10,10s4.5,10,10,10s10-4.5,10-10S136.1,171.6,130.6,171.6L130.6,171.6L130.6,171.6
		L130.6,171.6z M130.6,190.6c-5,0-9-4-9-9s4-9,9-9s9,4,9,9S135.6,190.6,130.6,190.6L130.6,190.6L130.6,190.6L130.6,190.6z"/>
</g>
</svg>
