<?xml version="1.0" encoding="utf-8"?>
<!-- Generator: Adobe Illustrator 24.0.0, SVG Export Plug-In . SVG Version: 6.00 Build 0)  -->
<svg version="1.1" id="Слой_1" xmlns="http://www.w3.org/2000/svg" xmlns:xlink="http://www.w3.org/1999/xlink" x="0px" y="0px"
	 viewBox="0 0 134.6 134.6" style="enable-background:new 0 0 134.6 134.6;" xml:space="preserve">
<style type="text/css">
	.st0{fill-rule:evenodd;clip-rule:evenodd;fill:#FFFFFF;}
</style>
<g>
	<path class="st0" d="M29.4,49.3c0.3-0.1,11.8-0.1,11.8-0.1c2.7,0,5,1.6,5.9,4c0.5,1.2,0.4,2.6,0.4,4V83c0,2.1-0.6,3.4-1.7,4.5
		c-1.4,1.4-2.6,1.8-4.8,1.8h-7V54c0-1.4,0.3-1.2-1.8-2.7C31.4,50.8,29.6,49.7,29.4,49.3C29.4,49.4,29.4,49.3,29.4,49.3L29.4,49.3z
		 M67.3,0c37.2,0,67.3,30.1,67.3,67.3s-30.1,67.3-67.3,67.3S0,104.5,0,67.3S30.1,0,67.3,0L67.3,0z M67.3,5.1
		c21.4,0,40.2,10.8,51.4,27.2c-1.4,0.1-6.2,0-7.9,0c-2.2,0-1.8,0-2.5,1.7c-0.2,0.4-0.4,0.9-0.7,1.4c-0.2,0.5-0.5,1-0.7,1.5
		c-0.4,0-0.6-0.3-1-0.5c-0.3-0.2-0.5-0.4-0.8-0.6l-3.3-2.4c-0.7-0.5-1.1-1-2-1h-14c-0.6,0-0.8,0.1-1.2,0.4l-8.1,5.9
		c-0.5,0.4-1.3,0.9-1.8,1.3c-0.6,0.4-1.2,0.9-1.8,1.3c-1.6,1.2-1.4,0.9-1.4,3.2v51c0,1,0.9,1.3,1.6,1.8c0.6,0.4,1.3,1.1,2,1.5
		s1.3,1,2,1.4c1.6,1,7.3,5.5,8,5.7c0.5,0.2,2.7,0.1,3.4,0.1c2.8,0,26.9-0.1,27.5,0.1l0,0c-11.4,14.3-29,23.5-48.7,23.5
		s-37.3-9.2-48.7-23.5l0,0c0.8-0.1,1.6,0,2.4,0h30.4c1.4,0,1.5-0.1,2.4-0.8L65.2,97c0.7-0.5,1-0.6,1-1.6V43c0-0.9-0.7-1.2-1.4-1.7
		c-0.2-0.1-0.6-0.4-0.9-0.6l-6.2-4.5c-0.6-0.4-1.2-0.8-1.8-1.3L53.2,33c-0.6-0.5-1.4-0.4-2.2-0.4H15.8v-0.1
		C27.1,15.9,45.9,5.1,67.3,5.1L67.3,5.1z M123.2,40.1c4,8.2,6.3,17.5,6.3,27.2c0,11-2.9,21.4-7.9,30.4h-0.1
		c-0.2-1,0.1-17.1-0.1-17.6c0-0.2-0.1-0.3-0.3-0.4c-0.2-0.1-16.9-0.2-17.1,0.1c-0.3,0.3-0.2,4.1-0.2,4.7c0,1.3,0.1,3.7,0,4.9
		c-0.9,0.1-6,0-7.2,0c-2.1,0-3.8-1-4.9-2.4c-1.4-1.7-1.3-3.3-1.3-5.9V53.9c0-0.7,0.1-1.1-0.3-1.5L86,49.3c1.8-0.1,17.5-0.1,17.8,0.1
		c0.1,0.1,0.1,0.7,0.1,0.9v8.5c0,0.9,0,1,0.9,1h11.5c0.6,0,3.4,0.1,3.7-0.1c0.4-0.4,0.4-2.8,0.8-3.9c0.1-0.5,0.9-6.3,1.2-7.5l1-6.6
		c0-0.4,0.1-0.5,0.1-0.8C123,40.5,122.9,40.1,123.2,40.1L123.2,40.1L123.2,40.1z M14.9,100.7C8.7,91,5.2,79.6,5.2,67.3
		C5.2,60,6.5,53,8.8,46.5c0.6,0.1,1.4,0.9,2.1,1.4l3.8,2.8c0.2,0.2,0.4,0.3,0.4,0.6c0.1,0.6,0,39.4,0,45.7
		C15,97.7,15.2,100.3,14.9,100.7L14.9,100.7L14.9,100.7z"/>
</g>
</svg>
